<svg id="Layer_3" data-name="Layer 3" xmlns="http://www.w3.org/2000/svg" width="500" height="800"
viewBox="0 0 285.61 886.39"><defs><style>.cls-1,.cls-2{fill:none;stroke:#e30613;stroke-miterlimit:10;}.cls-1{stroke-width:3px;}.cls-2{stroke-width:2px;}</style></defs><path class="cls-1" d="M886.32,0V437.05" transform="translate(-884.82 0)"/><path class="cls-2" d="M942.61,886" transform="translate(-884.82 0)"/><path class="cls-1" d="M972.61,0V437.14" transform="translate(-884.82 0)"/><path class="cls-2" d="M920.74,886" transform="translate(-884.82 0)"/><path class="cls-1" d="M950.74,0V437.45" transform="translate(-884.82 0)"/><path class="cls-2" d="M898.9,886" transform="translate(-884.82 0)"/><path class="cls-1" d="M928.9,0V437.77" transform="translate(-884.82 0)"/><path class="cls-1" d="M907.35,0V438" transform="translate(-884.82 0)"/><path class="cls-2" d="M965.15,886" transform="translate(-884.82 0)"/><path class="cls-1" d="M995.15,0V438" transform="translate(-884.82 0)"/><path class="cls-1" d="M1081.43,438.06V886" transform="translate(-884.82 0)"/><path class="cls-2" d="M1051.43,0" transform="translate(-884.82 0)"/><path class="cls-1" d="M1059.57,438.06V886" transform="translate(-884.82 0)"/><path class="cls-2" d="M1029.57,0" transform="translate(-884.82 0)"/><path class="cls-1" d="M1038,437.79V886" transform="translate(-884.82 0)"/><path class="cls-2" d="M1007.73,0" transform="translate(-884.82 0)"/><path class="cls-2" d="M986.17,886" transform="translate(-884.82 0)"/><path class="cls-1" d="M1016.43,0V437.79" transform="translate(-884.82 0)"/><path class="cls-1" d="M1168.93,437.79v448.6" transform="translate(-884.82 0)"/><path class="cls-2" d="M1138.93.39" transform="translate(-884.82 0)"/><path class="cls-1" d="M1147.07,437.79v448.6" transform="translate(-884.82 0)"/><path class="cls-2" d="M1117.07.39" transform="translate(-884.82 0)"/><path class="cls-1" d="M1125.23,438.06V886.39" transform="translate(-884.82 0)"/><path class="cls-2" d="M1095.23.39" transform="translate(-884.82 0)"/><path class="cls-1" d="M1103.67,438.06V886.39" transform="translate(-884.82 0)"/><path class="cls-2" d="M1073.67.39" transform="translate(-884.82 0)"/><path class="cls-1" d="M1027.63,578.35a141.3,141.3,0,0,1-141.31-141.3" transform="translate(-884.82 0)"/><path class="cls-1" d="M1027.63,296.17a141.31,141.31,0,0,1,141.3,141.31" transform="translate(-884.82 0)"/><path class="cls-1" d="M1027,557.66A119.67,119.67,0,0,1,907.35,438" transform="translate(-884.82 0)"/><path class="cls-1" d="M1027.39,318.11a119.68,119.68,0,0,1,119.68,119.68" transform="translate(-884.82 0)"/><path class="cls-1" d="M1027.07,535.64a98.17,98.17,0,0,1-98.17-98.16" transform="translate(-884.82 0)"/><path class="cls-1" d="M1027.07,339.9a98.16,98.16,0,0,1,98.16,98.16" transform="translate(-884.82 0)"/><path class="cls-1" d="M1027.34,514.08a76.61,76.61,0,0,1-76.6-76.6" transform="translate(-884.82 0)"/><path class="cls-1" d="M1027.07,361.47a76.59,76.59,0,0,1,76.59,76.59" transform="translate(-884.82 0)"/><path class="cls-1" d="M1027.17,491.7a54.56,54.56,0,0,1-54.56-54.56" transform="translate(-884.82 0)"/><path class="cls-1" d="M1026.87,383.5a54.56,54.56,0,0,1,54.56,54.56" transform="translate(-884.82 0)"/><path class="cls-1" d="M1027.36,405.85a32.21,32.21,0,0,1,32.21,32.21" transform="translate(-884.82 0)"/><path class="cls-1" d="M1027.36,469.69a32.21,32.21,0,0,1-32.21-32.21" transform="translate(-884.82 0)"/><circle class="cls-1" cx="142.39" cy="437.48" r="10.78"/></svg>