<svg xmlns="http://www.w3.org/2000/svg" width="35" height="35"
viewBox="0 0 64 64"><path fill="#222" d="M43.4531,50.9531H20.5469a7.5081,7.5081,0,0,1-7.5-7.5V20.5469a7.5081,7.5081,0,0,1,7.5-7.5H43.4531a7.5081,7.5081,0,0,1,7.5,7.5V43.4531A7.5081,7.5081,0,0,1,43.4531,50.9531ZM20.5469,16.0469a4.5049,4.5049,0,0,0-4.5,4.5V43.4531a4.5049,4.5049,0,0,0,4.5,4.5H43.4531a4.5049,4.5049,0,0,0,4.5-4.5V20.5469a4.5049,4.5049,0,0,0-4.5-4.5Z"/><path fill="#222" d="M39.0713,40.5713a1.4952,1.4952,0,0,1-1.0606-.44L23.8682,25.9893a1.5,1.5,0,0,1,2.1211-2.1211L40.1318,38.0107a1.5,1.5,0,0,1-1.06,2.5606Z"/><path fill="#222" d="M24.9287,40.5713a1.5,1.5,0,0,1-1.06-2.5606L38.0107,23.8682a1.5,1.5,0,0,1,2.1211,2.1211L25.9893,40.1318A1.4952,1.4952,0,0,1,24.9287,40.5713Z"/></svg>